<svg xmlns="http://www.w3.org/2000/svg" x="0px" y="0px" width="100" height="100" viewBox="0,0,256,256">
<g transform="translate(-28.16,-28.16) scale(1.22,1.22)"><g fill-opacity="0" fill="#dddddd" fill-rule="nonzero" stroke="none" stroke-width="1" stroke-linecap="butt" stroke-linejoin="miter" stroke-miterlimit="10" stroke-dasharray="" stroke-dashoffset="0" font-family="none" font-weight="none" font-size="none" text-anchor="none" style="mix-blend-mode: normal"><path d="M23.08197,232.91803v-209.83607h209.83607v209.83607z" id="bgRectangle"></path></g><g fill="none" fill-rule="nonzero" stroke="none" stroke-width="1" stroke-linecap="butt" stroke-linejoin="miter" stroke-miterlimit="10" stroke-dasharray="" stroke-dashoffset="0" font-family="none" font-weight="none" font-size="none" text-anchor="none" style="mix-blend-mode: normal"><g transform="scale(2.56,2.56)"><path d="M20.2,55.4c-0.49706,0 -0.9,0.40294 -0.9,0.9c0,0.49706 0.40294,0.9 0.9,0.9c0.49706,0 0.9,-0.40294 0.9,-0.9c0,-0.49706 -0.40294,-0.9 -0.9,-0.9zM79.2,30.8c-0.3866,0 -0.7,0.3134 -0.7,0.7c0,0.3866 0.3134,0.7 0.7,0.7c0.3866,0 0.7,-0.3134 0.7,-0.7c0,-0.3866 -0.3134,-0.7 -0.7,-0.7z" fill="#ffffff"></path><path d="M76.6,11.5c-0.49706,0 -0.9,0.40294 -0.9,0.9c0,0.49706 0.40294,0.9 0.9,0.9c0.49706,0 0.9,-0.40294 0.9,-0.9c0,-0.49706 -0.40294,-0.9 -0.9,-0.9zM20.7,63.1c-0.49706,0 -0.9,0.40294 -0.9,0.9c0,0.49706 0.40294,0.9 0.9,0.9c0.49706,0 0.9,-0.40294 0.9,-0.9c0,-0.49706 -0.40294,-0.9 -0.9,-0.9z" fill="#f1bc19"></path><path d="M49.5,12.2c-20.71068,0 -37.5,16.78932 -37.5,37.5c0,20.71068 16.78932,37.5 37.5,37.5c20.71068,0 37.5,-16.78932 37.5,-37.5c0,-20.71068 -16.78932,-37.5 -37.5,-37.5z" fill="#f9dbd2"></path><path d="M82,10.6c-2.20914,0 -4,1.79086 -4,4c0,2.20914 1.79086,4 4,4c2.20914,0 4,-1.79086 4,-4c0,-2.20914 -1.79086,-4 -4,-4z" fill="#f1bc19"></path><path d="M86,21.8c-1.04934,0 -1.9,0.85066 -1.9,1.9c0,1.04934 0.85066,1.9 1.9,1.9c1.04934,0 1.9,-0.85066 1.9,-1.9c0,-1.04934 -0.85066,-1.9 -1.9,-1.9z" fill="#e5304f"></path><path d="M77.1,74.2c-1.04934,0 -1.9,0.85066 -1.9,1.9c0,1.04934 0.85066,1.9 1.9,1.9c1.04934,0 1.9,-0.85066 1.9,-1.9c0,-1.04934 -0.85066,-1.9 -1.9,-1.9zM13.9,59.1c-2.20914,0 -4,1.79086 -4,4c0,2.20914 1.79086,4 4,4c2.20914,0 4,-1.79086 4,-4c0,-2.20914 -1.79086,-4 -4,-4z" fill="#595cfb"></path><path d="M24.1,85.4c-1.04934,0 -1.9,0.85066 -1.9,1.9c0,1.04934 0.85066,1.9 1.9,1.9c1.04934,0 1.9,-0.85066 1.9,-1.9c0,-1.04934 -0.85066,-1.9 -1.9,-1.9z" fill="#e5304f"></path><path d="M75.7,28.2c-0.99411,0 -1.8,0.80589 -1.8,1.8c0,0.99411 0.80589,1.8 1.8,1.8c0.99411,0 1.8,-0.80589 1.8,-1.8c0,-0.99411 -0.80589,-1.8 -1.8,-1.8zM17.6,48.5c-1.38071,0 -2.5,1.11929 -2.5,2.5c0,1.38071 1.11929,2.5 2.5,2.5c1.38071,0 2.5,-1.11929 2.5,-2.5c0,-1.38071 -1.11929,-2.5 -2.5,-2.5z" fill="#ffffff"></path><path d="M68,70.9c-0.4,-2.2 -1.3,-3.4 -3.3,-4l-0.3,-0.1l-0.6,-0.2c-1.4,-0.6 -8.8,-3.4 -8.8,-3.4c-0.6,-0.1 -1,-0.5 -1.2,-1.1c-0.2,-0.9 -0.3,-1.9 -0.2,-2.9c-1.6,0.6 -3.3,1 -5,1.4c-1.9,0.2 -6,-2.3 -6,-2.3c0,0 -0.1,3 -0.2,3.7c-0.2,0.6 -0.7,1 -1.3,1.1l-7.1,2.6c-0.8,0.2 -1.5,0.5 -2.2,0.9c-1.5,1 -2.6,2.4 -3.2,4.2c0,0 -0.5,3.3 -0.5,3.4c0,0.5 -0.1,1 -0.1,1.5c7.8,5.3 14,6.7 24.7,6.3c4.9,-0.2 12.1,-2.6 15.9,-4.5c-0.3,-4.2 -0.6,-6.6 -0.6,-6.6z" fill="#e5ac80"></path><path d="M68,70.9c-0.4,-2.2 -1.3,-3.4 -3.3,-4l-0.3,-0.1l-0.6,-0.2c-0.7,-0.3 -3.2,-1.2 -5.3,-2c-3.2,1.6 -6.6,6 -10.2,6c-3.6,0 -7.1,-4.6 -10.4,-6.1l0.8,-0.3v0l-0.3,0.1l-4.4,1.6c-0.8,0.2 -1.5,0.5 -2.2,0.9c-1.5,1 -2.6,2.4 -3.2,4.2c0,0 -0.5,3.3 -0.5,3.4c0,0.5 -0.1,5.4 -0.1,6c7.8,5.3 14,6.7 24.7,6.3c4.9,-0.2 12.1,-2.6 15.9,-4.5c-0.3,-4.4 -0.6,-11.3 -0.6,-11.3z" fill="#f1bc19"></path><path d="M56.9,64.4c-2.7,0.7 -5.6,4.8 -8.7,4.8c-3.1,0 -6,-4.1 -8.7,-4.8l-1.7,0.6c3.3,1.5 6.7,6.1 10.3,6.1c3.6,0 7.1,-4.6 10.3,-6.1z" fill="#ee3e54"></path><path d="M34.8,84.6c-0.2,0 -0.3,-0.1 -0.3,-0.3v-3.9c0,-0.2 0.1,-0.3 0.3,-0.3c0.2,0 0.3,0.1 0.3,0.3v3.9c-0.1,0.1 -0.2,0.3 -0.3,0.3zM61.1,85.3c-0.2,0 -0.3,-0.1 -0.3,-0.3v-4.6c0,-0.2 0.1,-0.3 0.3,-0.3c0.2,0 0.3,0.1 0.3,0.3v4.6c0,0.1 -0.2,0.3 -0.3,0.3z" fill="#e0a825"></path><path d="M60.3,44.4h-0.4c-1,0 -1.2,0.3 -1.2,-0.3c0.1,-1.1 -0.1,-5.4 -0.1,-5.6c0,-4.5 -4.7,-8.1 -10.5,-8.3h-0.2c-5.8,0.2 -10.5,3.8 -10.5,8.3c0,0.2 -0.2,4.5 -0.1,5.6c0,0.6 -0.2,0.2 -1.2,0.3h-0.4c-1,0 -1.8,0.7 -2.1,1.6c0.1,0.1 0.6,3.7 1.4,5.2c0.4,0.8 1.1,0.9 1.8,1.4c0.3,0.2 0.5,0.6 0.6,1c0.5,1.6 1.4,3 2.7,4.1c0.6,0.6 4.5,4.7 7.8,4.5c3.3,-0.2 7.3,-4 7.9,-4.5c1.3,-1.1 2.2,-2.5 2.7,-4.1c0.1,-0.4 0.3,-0.8 0.6,-1c0.7,-0.5 1.4,-0.6 1.8,-1.4c0.8,-1.4 1.3,-5.1 1.4,-5.2c-0.2,-1 -1.1,-1.6 -2,-1.6z" fill="#edbc94"></path><path d="M48.1,52.4c0.7,0 1.3,-0.3 1.8,-0.8c0,0 0,-0.1 0,-0.2v0v0c0,0 -0.1,0 -0.2,0v0c-0.4,0.4 -1,0.7 -1.6,0.6c-0.6,0 -1.2,-0.2 -1.6,-0.6h-0.1c0,0 0,0 -0.1,0c0,0 0,0.1 0,0.2c0.5,0.5 1.1,0.8 1.8,0.8zM45.9,42.2l0.4,-0.8c-1.9,-0.4 -3.8,-0.4 -5.7,0.2l0.5,0.8c1.7,-0.5 3.3,-0.6 4.8,-0.2zM55.1,42.2l0.4,-0.8c-1.9,-0.4 -3.8,-0.4 -5.7,0.2l0.5,0.8c1.6,-0.5 3.3,-0.6 4.8,-0.2zM43.3,43.4c-0.4,0 -0.8,0.3 -1,0.7c0.1,0 0.1,0 0.2,0c0.4,0 0.7,0.3 0.7,0.7c0,0.4 -0.3,0.7 -0.7,0.7c-0.1,0 -0.2,0 -0.3,-0.1c0.1,0.6 0.6,1.1 1.2,1.1c0.9,-0.2 1.4,-1.1 1.2,-2c-0.2,-0.5 -0.7,-1 -1.3,-1.1zM52.9,43.4c-0.4,0 -0.8,0.2 -1,0.5c0.1,0 0.2,-0.1 0.2,0c0.4,0 0.7,0.3 0.7,0.7c0,0.4 -0.3,0.7 -0.7,0.7c-0.2,0 -0.4,-0.1 -0.5,-0.3c-0.1,0.8 0.5,1.5 1.3,1.6c0.9,-0.2 1.4,-1.1 1.2,-2c-0.2,-0.6 -0.7,-1.1 -1.2,-1.2zM53.4,54.3c0,0 0,-0.1 0,-0.2v0v0c0,0 -0.1,0 -0.2,0v0c-1.5,1 -3.3,1.5 -5.2,1.4c-1.8,0.1 -3.6,-0.4 -5.1,-1.4c0,0 0,0 -0.1,0h-0.1c0,0 0,0.1 0,0.2c3.3,2.2 7.5,2.2 10.7,0z" fill="#512c2b"></path><path d="M49.2,87.3c-8.9,0 -14.7,-1.8 -21.5,-6.4c-0.2,-0.1 -0.2,-0.3 -0.2,-0.5c0,-0.1 0,-0.5 0,-1.1c0,-2.2 0.1,-6.7 0.6,-8.4c0.4,-1.9 1.6,-3.6 3.4,-4.5c0.7,-0.4 1.5,-0.7 2.3,-1l7.1,-2.6c0.5,-0.1 0.9,-0.4 1,-0.8c0,-0.3 0.1,-1.2 0.1,-2c-0.7,-0.5 -1.4,-1 -2.1,-1.6c-1.3,-1.2 -2.3,-2.7 -2.8,-4.4c-0.1,-0.3 -0.2,-0.6 -0.4,-0.8c-0.2,-0.1 -0.4,-0.3 -0.6,-0.4c-0.5,-0.3 -1,-0.6 -1.4,-1.2c-0.8,-1.7 -1.3,-3.5 -1.4,-5.4c0,-0.1 0,-0.1 0,-0.2c0.3,-1.1 1.4,-1.9 2.6,-1.9h0.4c0.3,0 0.5,0 0.7,0c0,-1.2 0,-3.8 0.1,-4.9c0,-0.3 0,-0.5 0,-0.5c0,-4.8 4.8,-8.7 11,-8.9h0.2c6.2,0.2 11,4.1 11,8.9c0,0 0,0.2 0,0.5c0,1.2 0.1,3.8 0.1,4.9c0.2,0 0.4,0 0.7,0h0.4c1.2,0 2.2,0.8 2.6,1.9c0,0.1 0,0.1 0,0.2c-0.2,1.9 -0.6,3.7 -1.4,5.4c-0.4,0.7 -0.9,1 -1.4,1.3c-0.2,0.1 -0.4,0.2 -0.6,0.4c-0.2,0.2 -0.3,0.4 -0.4,0.7c-0.5,1.8 -1.5,3.3 -2.9,4.5c-0.7,0.6 -1.5,1.2 -2.2,1.8c0,0.6 0.1,1.3 0.3,1.9c0.2,0.3 0.5,0.6 0.9,0.7c0.3,0.1 7.5,2.8 8.8,3.3l0.9,0.3c2.1,0.6 3.2,1.9 3.7,4.4c0,0 0,0 0,0.1c0,0 0.3,6.9 0.5,11.2c0,0.2 -0.1,0.4 -0.3,0.5c-4,2 -11.3,4.4 -16.1,4.6c-1.5,0 -2.6,0 -3.7,0zM28.4,80.2c7.4,5 13.5,6.5 24.2,6c4.5,-0.2 11.4,-2.4 15.4,-4.3c-0.2,-4.1 -0.5,-10.3 -0.5,-10.8c-0.4,-2.1 -1.2,-3.1 -3,-3.6l-1,-0.4c-1.3,-0.5 -8.6,-3.3 -8.7,-3.3c-0.7,-0.2 -1.2,-0.7 -1.5,-1.4c-0.3,-0.7 -0.4,-1.6 -0.3,-2.4c0,-0.2 0.1,-0.3 0.2,-0.4c0.8,-0.6 1.6,-1.2 2.3,-1.8c1.2,-1.1 2.1,-2.4 2.6,-3.9c0.1,-0.4 0.3,-0.9 0.7,-1.2c0.3,-0.2 0.5,-0.3 0.7,-0.5c0.4,-0.2 0.7,-0.4 1,-0.8c0.7,-1.5 1.2,-3.2 1.3,-4.9c-0.2,-0.7 -0.9,-1.1 -1.6,-1.1h-0.4c-0.3,0 -0.5,0 -0.7,0.1c-0.3,0 -0.6,0.1 -0.8,-0.1c-0.2,-0.2 -0.2,-0.6 -0.2,-0.7c0.1,-0.8 0,-3.9 -0.1,-5c0,-0.3 0,-0.5 0,-0.6c0,-4.2 -4.4,-7.7 -10,-7.9h-0.2c-5.6,0.2 -10,3.7 -10,7.9c0,0 0,0.2 0,0.5c0,1.2 -0.1,4.2 -0.1,5.1c0,0.2 0,0.5 -0.2,0.7c-0.2,0.2 -0.5,0.2 -0.7,0.1c-0.2,0 -0.4,-0.1 -0.7,0h-0.4c-0.7,0 -1.3,0.5 -1.6,1.1c0.2,1.7 0.6,3.4 1.3,5c0.2,0.4 0.5,0.6 0.9,0.8c0.2,0.1 0.5,0.3 0.7,0.4c0.4,0.3 0.7,0.8 0.8,1.3c0.4,1.4 1.3,2.8 2.5,3.8c0.7,0.6 1.5,1.2 2.2,1.7c0.1,0.1 0.2,0.2 0.2,0.4c0,1 -0.1,2.1 -0.2,2.5c-0.3,0.8 -0.9,1.4 -1.7,1.6l-7,2.6c-0.8,0.2 -1.5,0.5 -2.1,0.9c-1.5,0.8 -2.6,2.2 -2.9,3.8c-0.5,1.7 -0.5,6.3 -0.6,8.2c0.3,0.1 0.2,0.4 0.2,0.6z" fill="#472b29"></path><path d="M60.3,49.2l-0.6,-0.1l0.2,-1.8l-1,0.4l-0.2,-0.5l1.5,-0.6c0.1,0 0.2,0 0.3,0c0.1,0.1 0.1,0.2 0.1,0.3zM36.1,48.9l-0.3,-2.3c0,-0.1 0,-0.2 0.1,-0.3c0.1,-0.1 0.2,-0.1 0.3,0l1.5,0.7l-0.2,0.5l-1,-0.4l0.2,1.8z" fill="#d3a47d"></path><path d="M37.5,53.3c-0.1,0 -0.1,0 0,0c-0.1,0 -0.2,-0.1 -0.2,-0.2l0.2,-8.6c0,-0.1 0.1,-0.2 0.2,-0.2v0c0.1,0 0.2,0.1 0.2,0.2l-0.2,8.6c-0.1,0.2 -0.1,0.2 -0.2,0.2zM58.8,53.3c-0.1,0 -0.2,-0.1 -0.2,-0.2l-0.2,-8.6c0,-0.1 0.1,-0.2 0.2,-0.2c0.1,0 0.2,0.1 0.2,0.2l0.2,8.6c0,0.1 -0.1,0.2 -0.2,0.2z" fill="#472b29"></path><path d="M50.4,59.9c-1,-0.3 -1.9,-1.1 -2.2,-2.1c-0.3,1 -1.2,1.8 -2.2,2.1c-2.8,0.5 -5.6,-1.9 -7.6,-4.4c0.3,0.9 0.7,1.6 1.3,2.3c2,2 4.3,3.6 6.8,4.8c0.6,0.1 1.1,0.2 1.7,0.2c0.6,0 1.2,0 1.7,-0.2c2.5,-1.2 4.8,-2.8 6.8,-4.8c0.6,-0.7 1,-1.5 1.3,-2.3c-2,2.5 -4.8,4.9 -7.6,4.4z" fill="#512c2b"></path><path d="M60.4,30.8c-0.1,-0.6 -0.7,-0.5 -1.3,-0.5c-1.9,0.1 -2.3,-0.5 -6.2,-2.6c-3.2,-1.8 -7.3,-1.6 -10.3,0.5c-12,2.6 -5,18 -5,18c0,0 0,-8.1 3.7,-10.5c6.2,4 12.1,4.5 15.7,2.1c1.4,3.1 1.3,8.5 1.3,8.5c1.7,-3.3 2.1,-7.2 1.1,-10.8c-0.4,-1.5 1.2,-2.9 1,-4.7z" fill="#472b29"></path><path d="M57.8,44h-0.2h-0.2h-1.1c-0.7,0 -1.3,0 -2,0c-1,0 -2,0.1 -2.9,0.2h-0.3c-0.8,0.1 -1.5,0.3 -2.2,0.6c-0.5,0.2 -1.1,0.3 -1.6,0.1l-0.2,-0.1c-0.2,-0.1 -0.4,-0.2 -0.6,-0.2l-0.5,-0.3c-0.8,-0.2 -1.7,-0.3 -2.5,-0.4c-0.6,-0.1 -1.2,-0.1 -1.8,-0.1h-0.7h-0.8l-1.8,0.1c-0.5,0 -1.1,0.1 -1.3,0.3c-0.1,0.1 -0.1,0.1 -0.1,0.2c0,0.3 0.1,0.5 0.1,0.8c0.1,0.3 0.1,0.5 0.1,0.8c0,0.2 0.3,0.4 0.8,0.6c0.1,0 0.2,0.1 0.3,0.2c0.1,0.1 0.2,0.2 0.2,0.3v0.1c0.1,0.1 0.1,0.2 0.2,0.3c0.1,0.2 0.2,0.4 0.3,0.5c0.1,0.2 0.3,0.3 0.4,0.4c0.2,0.1 0.4,0.2 0.6,0.2c1.6,0.3 3.2,0.4 4.8,0.3c0.9,0 1.6,-0.6 1.8,-1.4c0.1,-0.2 0.2,-0.5 0.3,-0.7c0.1,-0.2 0.1,-0.3 0.2,-0.4c0.1,-0.2 0.2,-0.3 0.5,-0.3h0.5c0.4,0 0.5,0 0.7,0.5l0.1,0.2c0.2,0.4 0.3,0.8 0.5,1.3c0.2,0.4 0.6,0.7 1,0.8c0.2,0.1 0.4,0.1 0.6,0.1c0.4,0 0.8,0 1.1,0c1.1,0 2.1,-0.1 3.2,-0.3c0.8,0 1.5,-0.6 1.8,-1.3c0.1,-0.2 0.3,-0.5 0.5,-0.7c0.1,-0.1 0.3,-0.1 0.4,-0.2c0.4,-0.2 0.6,-0.3 0.7,-0.4h0.3c0.1,0 0.1,-0.1 0.1,-0.1c0,-0.2 0,-0.3 0,-0.5c0,-0.4 0.1,-0.8 0.1,-1.1c0,-0.3 -0.7,-0.4 -1.4,-0.4zM52,44.6c0.4,0 0.8,-0.1 1.2,-0.1h0.5h0.8c0.2,0 0.3,0 0.5,0c0.5,0 0.9,0.1 1.4,0.1c0.5,0 0.6,0.3 0.6,0.8c0,0.7 -0.2,1.4 -0.5,2c-0.1,0.2 -0.2,0.3 -0.4,0.4c-0.6,0.3 -1.3,0.5 -1.9,0.5c-0.8,0 -1.7,0.1 -2.5,0.1h-0.4c-0.5,0 -1,-0.3 -1.3,-0.8c-0.4,-0.6 -0.5,-1.3 -0.5,-2c0,-0.2 0.2,-0.4 0.4,-0.5c0.6,-0.2 1.2,-0.4 1.8,-0.4zM46.5,45.8c0,0.8 -0.3,1.5 -0.8,2.1c-0.2,0.3 -0.6,0.5 -0.9,0.5c-0.5,0 -1,0.1 -1.4,0.1v0c-1,0 -1.9,-0.1 -2.8,-0.3c-0.3,-0.1 -0.6,-0.2 -0.8,-0.3c-0.1,-0.1 -0.3,-0.2 -0.3,-0.4c-0.3,-0.6 -0.4,-1.3 -0.4,-2c0,-0.5 0.1,-0.7 0.6,-0.8c0.5,-0.1 1.1,-0.1 1.6,-0.1h0.7c1.3,0 2.7,0.2 3.9,0.5l0.1,-0.1c0.5,0.2 0.6,0.3 0.5,0.8z" fill="#ee3e54"></path></g></g></g>
</svg>