<svg xmlns="http://www.w3.org/2000/svg" xmlns:xlink="http://www.w3.org/1999/xlink" viewBox="0 0 400 400" width="400" height="400" preserveAspectRatio="xMidYMid meet" style="width: 100%; height: 100%; transform: translate3d(0px, 0px, 0px); content-visibility: visible;" id="Male Avatar"><defs><clipPath id="__lottie_element_13429"><rect width="400" height="400" x="0" y="0"/></clipPath><clipPath id="__lottie_element_13434"><path fill="#ffffff" clip-rule="nonzero" d=" M13.711999893188477,192.86599731445312 C13.711999893188477,293.2959899902344 95.125,374.7120056152344 195.55599975585938,374.7120056152344 C295.9840087890625,374.7120056152344 377.3999938964844,293.2959899902344 377.3999938964844,192.86599731445312 C377.3999938964844,92.43800354003906 295.9840087890625,11.024999618530273 195.55599975585938,11.024999618530273 C95.125,11.024999618530273 13.711999893188477,92.43800354003906 13.711999893188477,192.86599731445312" fill-opacity="1"/></clipPath></defs><g clip-path="url(#__lottie_element_13429)"><g transform="matrix(1.2104899883270264,0,0,1.2104899883270264,200,200)" opacity="1" style="display: block;"><g opacity="1" transform="matrix(1,0,0,1,0,0)"><path fill="rgb(255,255,255)" fill-opacity="1" d=" M165.2220001220703,0 C165.2220001220703,91.2490005493164 91.2490005493164,165.2220001220703 -0.0010000000474974513,165.2220001220703 C-91.25,165.2220001220703 -165.2220001220703,91.2490005493164 -165.2220001220703,0 C-165.2220001220703,-91.2490005493164 -91.25,-165.2220001220703 -0.0010000000474974513,-165.2220001220703 C91.2490005493164,-165.2220001220703 165.2220001220703,-91.2490005493164 165.2220001220703,0z"/></g></g><g clip-path="url(#__lottie_element_13434)" transform="matrix(1,0,0,1,12,0)" opacity="1" style="display: block;"><g opacity="1" transform="matrix(0.9876883625984192,0.15643446147441864,-0.15643446147441864,0.9876883625984192,23.4840087890625,-78.51953125)"><g opacity="1" transform="matrix(1,0,0,1,0,0)"><g opacity="1" transform="matrix(1,0,0,1,377.7950134277344,567.8590087890625)"><path fill="rgb(244,116,88)" fill-opacity="1" d=" M136.91700744628906,-256.8909912109375 C136.91700744628906,-256.8909912109375 72.7229995727539,-274.04901123046875 71.96600341796875,-268.8739929199219 C55.41400146484375,-155.58999633789062 48.236000061035156,-114.64800262451172 45.90999984741211,-113.52899932861328 C37.97200012207031,-109.70899963378906 -63.319000244140625,-207.32699584960938 -81.65299987792969,-214.24400329589844 C-90.42500305175781,-217.55299377441406 -100.06900024414062,-217.29100036621094 -109.30799865722656,-217.26199340820312 C-131.33799743652344,-217.19000244140625 -135.68299865722656,-217.22500610351562 -135.68299865722656,-217.22500610351562 C-136.31399536132812,-217.1999969482422 -136.49000549316406,-217.18899536132812 -136.49000549316406,-217.18899536132812 C-136.49000549316406,-217.18899536132812 -136.91700744628906,-196.48300170898438 -136.91700744628906,-196.48300170898438 C-112.69999694824219,-173.5189971923828 -88.91600036621094,269.9440002441406 -84.12999725341797,269.84698486328125 C-78.78099822998047,269.7359924316406 21.857999801635742,269.197998046875 17.076000213623047,260.802001953125 C17.076000213623047,260.802001953125 -7.251999855041504,124.23300170898438 -26.39299964904785,34.20199966430664 C-32.81700134277344,3.9760000705718994 -50.763999938964844,-59.202999114990234 -50.763999938964844,-59.202999114990234 C-26.163999557495117,-46.04800033569336 69.96600341796875,4.427999973297119 85.56099700927734,-1.496000051498413 C134.08799743652344,-19.93400001525879 136.91700744628906,-256.8909912109375 136.91700744628906,-256.8909912109375z"/></g><g opacity="1" transform="matrix(1,0,0,1,267.010986328125,607.4979858398438)"><path fill="rgb(70,110,182)" fill-opacity="1" d=" M57.54499816894531,-26.85099983215332 C46.50699996948242,-81.17400360107422 18.263999938964844,-170.3159942626953 9.996999740600586,-190.5279998779297 C-8.98900032043457,-236.9459991455078 -24.975000381469727,-256.625 -24.975000381469727,-256.625 C-24.975000381469727,-256.625 -100.13899993896484,-254.4029998779297 -100.13899993896484,-254.4029998779297 C-100.13899993896484,-254.4029998779297 -101.87799835205078,-253.9199981689453 -102.40499877929688,-253.83399963378906 C-108.55000305175781,-252.86599731445312 -108.72899627685547,-33.97800064086914 -105.41999816894531,47.86199951171875 C-102.10700225830078,129.7050018310547 -83.94599914550781,236.20599365234375 -83.94599914550781,236.20599365234375 C-83.94599914550781,236.20599365234375 -62.5,234.17300415039062 -62.5,234.17300415039062 C-62.14500045776367,245.21499633789062 -61.9010009765625,252.48199462890625 -61.9010009765625,252.48199462890625 C46.847999572753906,271.65899658203125 107.56099700927734,218.04800415039062 107.56099700927734,218.04800415039062 C107.56099700927734,218.04800415039062 71.85700225830078,43.58100128173828 57.54499816894531,-26.85099983215332z"/></g><g opacity="1" transform="matrix(1,0,0,1,59.96900177001953,470.5929870605469)"><path fill="rgb(244,116,88)" fill-opacity="1" d=" M106.9020004272461,-117.49800109863281 C106.9020004272461,-117.49800109863281 32.57699966430664,-122.91400146484375 13.604999542236328,-132.1009979248047 C2.1010000705718994,-137.67599487304688 -102.99099731445312,-117.2040023803711 -102.99099731445312,-117.2040023803711 C-102.99099731445312,-117.2040023803711 -96.50599670410156,-323.47100830078125 -96.50599670410156,-323.47100830078125 C-96.50599670410156,-323.47100830078125 -163.6219940185547,-330.3489990234375 -163.6219940185547,-330.3489990234375 C-163.6219940185547,-330.3489990234375 -192.97999572753906,-203.26699829101562 -181.5540008544922,-177.9929962158203 C-169.75900268554688,-151.88999938964844 -32.57699966430664,-42.104000091552734 -5.793000221252441,4.673999786376953 C9.640999794006348,31.624000549316406 -5.000999927520752,397.5119934082031 0.004000000189989805,400.89599609375 C35.724998474121094,420.6929931640625 185.8780059814453,438.2200012207031 183.54400634765625,426.718994140625 C119.0270004272461,108.83599853515625 106.9020004272461,-117.49800109863281 106.9020004272461,-117.49800109863281z"/></g><g opacity="1" transform="matrix(1,0,0,1,208.02999877929688,352.9119873046875)"><path fill="rgb(247,164,145)" fill-opacity="1" d=" M-37.2859992980957,-66.03399658203125 C-37.2859992980957,-66.03399658203125 -41.15800094604492,0.18299999833106995 -41.15800094604492,0.18299999833106995 C-41.15800094604492,0.18299999833106995 5.232999801635742,85.18299865722656 30.486000061035156,74.16999816894531 C51.676998138427734,64.9280014038086 34.76599884033203,0.753000020980835 34.76599884033203,0.753000020980835 C34.76599884033203,0.753000020980835 31.524999618530273,-13.942000389099121 26.93600082397461,-30.849000930786133 C23.731000900268555,-42.6619987487793 21.14299964904785,-55.4370002746582 21.606000900268555,-64.7509994506836 C22.725000381469727,-87.38500213623047 -37.2859992980957,-66.03399658203125 -37.2859992980957,-66.03399658203125z"/></g><g opacity="1" transform="matrix(1,0,0,1,202.2899932861328,298.6260070800781)"><path fill="rgb(244,116,88)" fill-opacity="1" d=" M27.344999313354492,-10.46399974822998 C28.464000701904297,-33.097999572753906 -31.547000885009766,-11.746999740600586 -31.547000885009766,-11.746999740600586 C-31.547000885009766,-11.746999740600586 -31.927000045776367,-5.2729997634887695 -31.927000045776367,-5.2729997634887695 C-30.00200080871582,-2.2039999961853027 -27.86400032043457,0.4059999883174896 -25.490999221801758,2.441999912261963 C-9.857000350952148,15.82699966430664 13.088000297546387,22.270999908447266 31.927000045776367,20.611000061035156 C29.08099937438965,9.619000434875488 26.922000885009766,-1.8899999856948853 27.344999313354492,-10.46399974822998z"/></g><g opacity="1" transform="matrix(1,0,0,1,0,0)"><g opacity="1" transform="matrix(1,0,0,1,216.0330047607422,198.32699584960938)"><path fill="rgb(24,70,85)" fill-opacity="1" d=" M16.725000381469727,-61.077999114990234 C16.725000381469727,-61.077999114990234 40.50400161743164,-23.10099983215332 41.5260009765625,8.357999801635742 C42.55099868774414,39.81800079345703 35.3380012512207,61.077999114990234 35.3380012512207,61.077999114990234 C35.3380012512207,61.077999114990234 -41.625999450683594,-35.981998443603516 -41.625999450683594,-35.981998443603516 C-41.625999450683594,-35.981998443603516 16.725000381469727,-61.077999114990234 16.725000381469727,-61.077999114990234z"/></g><g opacity="1" transform="matrix(1,0,0,1,254.3489990234375,201.35000610351562)"><path fill="rgb(244,140,127)" fill-opacity="1" d=" M11.605999946594238,-0.8759999871253967 C12.437999725341797,10.152000427246094 7.914000034332275,19.485000610351562 1.503999948501587,19.9689998626709 C-4.906000137329102,20.454999923706055 -10.774999618530273,11.904999732971191 -11.607000350952148,0.8769999742507935 C-12.4350004196167,-10.151000022888184 -7.914000034332275,-19.485000610351562 -1.503999948501587,-19.9689998626709 C4.906000137329102,-20.454999923706055 10.774999618530273,-11.906999588012695 11.605999946594238,-0.8759999871253967z"/></g><g opacity="1" transform="matrix(1,0,0,1,205.10899353027344,227.55799865722656)"><path fill="rgb(247,164,145)" fill-opacity="1" d=" M-56.81100082397461,-50.66999816894531 C-58.62099838256836,-51.106998443603516 -60.84400177001953,40.33300018310547 -34.90299987792969,62.54600143432617 C-8.96500015258789,84.75900268554688 37.11399841308594,87.8550033569336 51.15299987792969,66.53700256347656 C66.68000030517578,42.95399856567383 55.03200149536133,-53.762001037597656 16.152000427246094,-75.26000213623047 C-22.72800064086914,-96.75599670410156 -56.81100082397461,-50.66999816894531 -56.81100082397461,-50.66999816894531z"/></g><g opacity="1" transform="matrix(1,0,0,1,165.6739959716797,206.88499450683594)"><path fill="rgb(24,70,85)" fill-opacity="1" d=" M-22.60700035095215,-86.8759994506836 C-43.30699920654297,-69.66600036621094 -53.44200134277344,-56.9640007019043 -67.95800018310547,-25.78499984741211 C-85.80799865722656,12.550999641418457 -53.465999603271484,53.60599899291992 -25.882999420166016,70.30899810791016 C1.7039999961853027,87.00800323486328 3.5280001163482666,106.3740005493164 3.5280001163482666,106.3740005493164 C3.5280001163482666,106.3740005493164 4.991000175476074,94.50399780273438 4.991000175476074,94.50399780273438 C5.6579999923706055,90.16300201416016 5.5929999351501465,86.63099670410156 4.919000148773193,83.5479965209961 C4.130000114440918,79.927001953125 2.556999921798706,76.91899871826172 1.190999984741211,73.78600311279297 C-1.0570000410079956,68.62899780273438 -8.260000228881836,50.970001220703125 -11.12399959564209,46.28200149536133 C-18.684999465942383,33.92399978637695 -20.16900062561035,31.250999450683594 -15.973999977111816,19.805999755859375 C-12.746999740600586,10.991999626159668 -15.701000213623047,-8.699000358581543 -10.685999870300293,-23.231000900268555 C-10.685999870300293,-23.231000900268555 27.222000122070312,-30.374000549316406 27.222000122070312,-30.374000549316406 C27.222000122070312,-30.374000549316406 50.95800018310547,-35.42499923706055 63.22999954223633,-48.85100173950195 C98.46700286865234,-87.41400146484375 32,-133.18800354003906 -22.60700035095215,-86.8759994506836z"/></g><g opacity="1" transform="matrix(1,0,0,1,147.71400451660156,241.54299926757812)"><path fill="rgb(247,164,145)" fill-opacity="1" d=" M10.685999870300293,-4.613999843597412 C15.067000389099121,5.544000148773193 13.829999923706055,15.840999603271484 7.928999900817871,18.38800048828125 C2.0280001163482666,20.937000274658203 -6.310999870300293,14.765999794006348 -10.687999725341797,4.611000061035156 C-15.0649995803833,-5.545000076293945 -13.831999778747559,-15.842000007629395 -7.931000232696533,-18.388999938964844 C-2.0260000228881836,-20.93400001525879 6.309000015258789,-14.767000198364258 10.685999870300293,-4.613999843597412z"/></g></g></g></g></g></g></svg>