<svg xmlns="http://www.w3.org/2000/svg" xmlns:xlink="http://www.w3.org/1999/xlink" viewBox="0 0 400 400" width="400" height="400" preserveAspectRatio="xMidYMid meet" style="width: 100%; height: 100%; transform: translate3d(0px, 0px, 0px); content-visibility: visible;" id="Female Avatar"><defs><clipPath id="__lottie_element_12569"><rect width="400" height="400" x="0" y="0"/></clipPath><clipPath id="__lottie_element_12574"><path fill="#ffffff" clip-rule="nonzero" d=" M392.34600830078125,192.34500122070312 C392.34600830078125,298.57501220703125 306.2309875488281,384.6910095214844 200.00100708007812,384.6910095214844 C93.77200317382812,384.6910095214844 7.6570000648498535,298.57501220703125 7.6570000648498535,192.34500122070312 C7.6570000648498535,86.11699676513672 93.77200317382812,0 200.00100708007812,0 C306.2309875488281,0 392.34600830078125,86.11699676513672 392.34600830078125,192.34500122070312" fill-opacity="1"/></clipPath></defs><g clip-path="url(#__lottie_element_12569)"><g transform="matrix(1.2104899883270264,0,0,1.2104899883270264,200,200)" opacity="1" style="display: block;"><g opacity="1" transform="matrix(1,0,0,1,0,0)"><path fill="rgb(255,255,255)" fill-opacity="1" d=" M165.2220001220703,0 C165.2220001220703,91.2490005493164 91.2490005493164,165.2220001220703 -0.0010000000474974513,165.2220001220703 C-91.25,165.2220001220703 -165.2220001220703,91.2490005493164 -165.2220001220703,0 C-165.2220001220703,-91.2490005493164 -91.25,-165.2220001220703 -0.0010000000474974513,-165.2220001220703 C91.2490005493164,-165.2220001220703 165.2220001220703,-91.2490005493164 165.2220001220703,0z"/></g></g><g clip-path="url(#__lottie_element_12574)" transform="matrix(0.9399999976158142,0,0,0.9399999976158142,16.00006103515625,11.651397705078125)" opacity="1" style="display: block;"><g opacity="1" transform="matrix(1,0,0,1,1,3.1749267578125)"><g opacity="1" transform="matrix(1,0,0,1,0,0)"><g opacity="1" transform="matrix(1,0,0,1,153.47300720214844,238.9499969482422)"><path fill="rgb(19,55,91)" fill-opacity="1" d=" M137.14874267578125,-74.2234115600586 C138.2637481689453,-101.06441497802734 135.46559143066406,-127.33799743652344 123.45958709716797,-152.32699584960938 C113.1265869140625,-173.82699584960938 87.79399871826172,-186.0260009765625 64.47899627685547,-186.05599975585938 C-9.548999786376953,-186.1510009765625 -19.889432907104492,-89.73004150390625 -67.01143646240234,-52.00004196166992 C-81.41043090820312,-40.47404098510742 -98.89569091796875,-30.61964988708496 -112.52069091796875,-18.187650680541992 C-162.8326873779297,27.719348907470703 -144.3324737548828,111.07889556884766 -98.13746643066406,151.32589721679688 C-66.07746887207031,179.25289916992188 -12.223712921142578,197.6699981689453 27.288288116455078,175.83599853515625 C47.91328811645508,164.43800354003906 66.19377899169922,145.8314666748047 74.26245880126953,124.50758361816406 C85.66316986083984,93.8514633178711 101.68850708007812,60.595760345458984 112.94850158691406,29.19776153564453 C124.93328857421875,-4.21923828125 135.66973876953125,-38.54741287231445 137.14874267578125,-74.2234115600586z"/></g><g opacity="1" transform="matrix(1,0,0,1,254.31399536132812,342.5260009765625)"><path fill="rgb(150,217,201)" fill-opacity="1" d=" M10.010000228881836,69.47699737548828 C10.010000228881836,69.47699737548828 -45.27799987792969,12.78600025177002 -59.505001068115234,-11.843999862670898 C-73.73200225830078,-36.472999572753906 -49.81700134277344,-20.437999725341797 -25.38800048828125,-26.917999267578125 C-16.136999130249023,-29.371999740600586 -18.476999282836914,-83.58200073242188 -0.9890000224113464,-65.96099853515625 C27.701000213623047,-37.053001403808594 63.77000045776367,13.49899959564209 63.77000045776367,13.49899959564209 C63.77000045776367,13.49899959564209 10.010000228881836,69.47699737548828 10.010000228881836,69.47699737548828z"/></g><g opacity="1" transform="matrix(1,0,0,1,192.81900024414062,418.7699890136719)"><path fill="rgb(80,191,165)" fill-opacity="1" d=" M-7.098999977111816,-167.0749969482422 C-7.098999977111816,-167.0749969482422 -56.71699905395508,-176.8699951171875 -79.36000061035156,-157.9530029296875 C-102.00299835205078,-139.03500366210938 -74.50900268554688,29.152000427246094 -74.53299713134766,57.03200149536133 C-74.55500030517578,84.91200256347656 -90.08000183105469,157.72999572753906 -90.08000183105469,157.72999572753906 C-90.08000183105469,157.72999572753906 60.305999755859375,190.00799560546875 84.19200134277344,148.15499877929688 C84.19200134277344,148.15499877929688 90.98899841308594,-11.307000160217285 89.97699737548828,-31.361000061035156 C88.96499633789062,-51.41299819946289 66.66799926757812,-133.4219970703125 60.50600051879883,-142.2050018310547 C54.340999603271484,-150.98599243164062 -7.098999977111816,-167.0749969482422 -7.098999977111816,-167.0749969482422z"/></g><g opacity="1" transform="matrix(1,0,0,1,198.72000122070312,233.63099670410156)"><path fill="rgb(247,164,145)" fill-opacity="1" d=" M-13.312000274658203,-58.685001373291016 C-13.312000274658203,-58.685001373291016 -13.574000358581543,-57.20199966430664 -14.043000221252441,-54.676998138427734 C-16.29400062561035,-42.56700134277344 -24.95800018310547,-2.3940000534057617 -30.812999725341797,8.649999618530273 C-37.88999938964844,21.99799919128418 -6.5929999351501465,64.56600189208984 23.530000686645508,59.37099838256836 C32.49599838256836,57.82500076293945 15.95199966430664,20.257999420166016 16.746000289916992,16.27899932861328 C18.268999099731445,8.66100025177002 20.33099937438965,-1.7300000190734863 22.44300079345703,-12.383999824523926 C23.634000778198242,-18.395999908447266 24.843000411987305,-24.490999221801758 25.975000381469727,-30.216999053955078 C29.19700050354004,-46.494998931884766 31.825000762939453,-59.80799865722656 31.825000762939453,-59.80799865722656 C31.825000762939453,-59.80799865722656 -13.312000274658203,-58.685001373291016 -13.312000274658203,-58.685001373291016z"/></g><g opacity="1" transform="matrix(1,0,0,1,206.92599487304688,197.48500061035156)"><path fill="rgb(244,116,88)" fill-opacity="1" d=" M-22.249000549316406,-18.5310001373291 C-21.780000686645508,-21.055999755859375 -21.51799964904785,-22.538999557495117 -21.51799964904785,-22.538999557495117 C-21.51799964904785,-22.538999557495117 23.618999481201172,-23.66200065612793 23.618999481201172,-23.66200065612793 C23.618999481201172,-23.66200065612793 20.990999221801758,-10.348999977111816 17.768999099731445,5.928999900817871 C16.641000747680664,11.625 15.440999984741211,17.683000564575195 14.255999565124512,23.66200065612793 C7.289000034332275,22.63800048828125 0.006000000052154064,19.256000518798828 -7.293000221252441,12.878999710083008 C-15.253000259399414,5.926000118255615 -20.4689998626709,-2.430000066757202 -23.618999481201172,-11.35099983215332 C-23.062999725341797,-14.199999809265137 -22.597999572753906,-16.652999877929688 -22.249000549316406,-18.5310001373291z"/></g><g opacity="1" transform="matrix(1,0,0,1,212.98399353027344,135.12899780273438)"><path fill="rgb(247,164,145)" fill-opacity="1" d=" M2.803999900817871,-62.57400131225586 C2.803999900817871,-62.57400131225586 -18.472999572753906,-65.02799987792969 -31.808000564575195,-47.81399917602539 C-45.143001556396484,-30.601999282836914 -59.518001556396484,22.6299991607666 -26.388999938964844,51.571998596191406 C6.739999771118164,80.51200103759766 39.46900177001953,47.75299835205078 44.32500076293945,13.019000053405762 C49.17599868774414,-21.714000701904297 51.0629997253418,-63.827999114990234 2.803999900817871,-62.57400131225586z"/></g><g opacity="1" transform="matrix(1,0,0,1,207.9239959716797,88.03399658203125)"><path fill="rgb(19,55,91)" fill-opacity="1" d=" M41.029998779296875,-24.222000122070312 C41.029998779296875,-24.222000122070312 -0.4440000057220459,35.20399856567383 -39.93000030517578,27.238000869750977 C-39.93000030517578,27.238000869750977 -41.029998779296875,1.8860000371932983 -41.029998779296875,1.8860000371932983 C-41.029998779296875,1.8860000371932983 -37.388999938964844,-7.715000152587891 -37.388999938964844,-7.715000152587891 C-37.388999938964844,-7.715000152587891 -17.378999710083008,-20.562999725341797 -17.378999710083008,-20.562999725341797 C-17.378999710083008,-20.562999725341797 15.131999969482422,-27.972999572753906 15.131999969482422,-27.972999572753906 C15.131999969482422,-27.972999572753906 41.029998779296875,-24.222000122070312 41.029998779296875,-24.222000122070312z"/></g><g opacity="1" transform="matrix(1,0,0,1,259.4429931640625,143.2310028076172)"><path fill="rgb(247,164,145)" fill-opacity="1" d=" M7.664999961853027,4.4029998779296875 C3.7119998931884766,12.074999809265137 -2.9260001182556152,16.32200050354004 -7.159999847412109,13.890000343322754 C-11.392000198364258,11.458999633789062 -11.619000434875488,3.2690000534057617 -7.665999889373779,-4.4029998779296875 C-3.7109999656677246,-12.072999954223633 2.9260001182556152,-16.32200050354004 7.1579999923706055,-13.890000343322754 C11.392000198364258,-11.460000038146973 11.619999885559082,-3.2690000534057617 7.664999961853027,4.4029998779296875z"/></g><g opacity="1" transform="matrix(1,0,0,1,164.32000732421875,134.67799377441406)"><path fill="rgb(247,164,145)" fill-opacity="1" d=" M10.42300033569336,-2.13700008392334 C12.076000213623047,6.854000091552734 8.75,15.097000122070312 2.993000030517578,16.275999069213867 C-2.760999917984009,17.457000732421875 -8.770000457763672,11.126999855041504 -10.42300033569336,2.13700008392334 C-12.07699966430664,-6.853000164031982 -8.751999855041504,-15.095999717712402 -2.993000030517578,-16.277000427246094 C2.76200008392334,-17.457000732421875 8.770000457763672,-11.125 10.42300033569336,-2.13700008392334z"/></g><g opacity="1" transform="matrix(1,0,0,1,212.98399353027344,172.5070037841797)"><path fill="rgb(255,255,255)" fill-opacity="1" d=" M15.604999542236328,-4.934000015258789 C15.604999542236328,-4.934000015258789 -15.604999542236328,-6.550000190734863 -15.604999542236328,-6.550000190734863 C-15.604999542236328,-6.550000190734863 -15.5,5.3420000076293945 -1.7940000295639038,6.449999809265137 C14.916000366210938,7.798999786376953 15.604999542236328,-4.934000015258789 15.604999542236328,-4.934000015258789z"/></g><g opacity="1" transform="matrix(1,0,0,1,212.98399353027344,172.5070037841797)"><path fill="rgb(255,255,255)" fill-opacity="1" d=" M15.604999542236328,-4.934000015258789 C15.604999542236328,-4.934000015258789 -15.604999542236328,-6.550000190734863 -15.604999542236328,-6.550000190734863 C-15.604999542236328,-6.550000190734863 -15.5,5.3420000076293945 -1.7940000295639038,6.449999809265137 C14.916000366210938,7.798999786376953 15.604999542236328,-4.934000015258789 15.604999542236328,-4.934000015258789z"/></g><g opacity="1" transform="matrix(1,0,0,1,147.91400146484375,329.4150085449219)"><path fill="rgb(150,217,201)" fill-opacity="1" d=" M-15.755000114440918,80.60299682617188 C-15.755000114440918,80.60299682617188 -48.316001892089844,8.420000076293945 -53.25899887084961,-19.590999603271484 C-58.20199966430664,-47.599998474121094 -34.172000885009766,-82.76499938964844 -9.00100040435791,-80.4990005493164 C16.170000076293945,-78.23100280761719 53.90999984741211,46.391998291015625 53.90999984741211,46.391998291015625 C53.90999984741211,46.391998291015625 -15.755000114440918,80.60299682617188 -15.755000114440918,80.60299682617188z"/></g></g></g></g></g></svg>