<svg xmlns="http://www.w3.org/2000/svg" xmlns:xlink="http://www.w3.org/1999/xlink" width="200" zoomAndPan="magnify" viewBox="0 0 150 149.999998" height="200" preserveAspectRatio="xMidYMid meet" version="1.0"><defs><g/></defs><g fill="#ffa732" fill-opacity="1"><g transform="translate(0.486329, 100.874996)"><g><path d="M 6.597656 -23.324219 L 18.671875 -34.722656 C 21.296875 -37.570312 17.398438 -40.722656 15 -38.097656 L 2.023438 -25.648438 C 0.523438 -24.222656 0.226562 -22.574219 1.949219 -21.148438 L 14.847656 -8.625 C 17.398438 -6.222656 21.222656 -9.75 18.597656 -12.296875 Z M 6.597656 -23.324219 "/></g></g></g><g fill="#ffa732" fill-opacity="1"><g transform="translate(23.7327, 100.874996)"><g><path d="M 21.523438 -49.195312 L -0.976562 3.675781 C -2.398438 6.675781 2.023438 9.222656 3.75 5.773438 L 26.398438 -47.171875 C 27.746094 -50.320312 22.722656 -51.96875 21.523438 -49.195312 Z M 21.523438 -49.195312 "/></g></g></g><g fill="#ef4040" fill-opacity="1"><g transform="translate(51.26367, 100.874996)"><g><path d="M 36.296875 -21.898438 L 36.296875 -2.699219 C 36.296875 -1.050781 37.421875 0 39.070312 0 C 40.796875 0 41.769531 -1.050781 41.769531 -2.699219 L 41.769531 -21.898438 C 41.769531 -32.695312 33.445312 -38.695312 24.746094 -38.695312 C 19.125 -38.695312 13.273438 -36.519531 10.574219 -31.273438 L 10.574219 -47.695312 C 10.574219 -49.269531 9.148438 -50.09375 7.800781 -50.09375 C 6.375 -50.09375 5.023438 -49.269531 5.023438 -47.695312 L 5.023438 -2.699219 C 5.023438 -1.050781 6.148438 0 7.875 0 C 9.597656 0 10.574219 -1.050781 10.574219 -2.699219 L 10.574219 -20.773438 C 10.574219 -28.496094 17.398438 -33.597656 24.671875 -33.597656 C 30.746094 -33.597656 36.296875 -28.796875 36.296875 -21.898438 Z M 36.296875 -21.898438 "/></g></g></g><g fill="#ef4040" fill-opacity="1"><g transform="translate(99.631125, 100.874996)"><g><path d="M 10.125 -32.320312 L 10.125 -35.320312 C 10.125 -37.046875 8.847656 -37.945312 7.574219 -37.945312 C 6.222656 -37.945312 4.800781 -36.972656 4.800781 -35.320312 L 4.800781 -2.625 C 4.800781 -1.050781 5.925781 0 7.574219 0 C 9 0 10.273438 -1.050781 10.273438 -2.625 L 10.273438 -19.796875 C 10.273438 -27.371094 13.574219 -33.523438 21.296875 -33.523438 C 23.023438 -33.523438 24.148438 -34.421875 24.148438 -36.070312 C 24.148438 -37.796875 23.023438 -38.695312 21.296875 -38.695312 C 17.023438 -38.695312 12.523438 -37.347656 10.125 -32.320312 Z M 10.125 -32.320312 "/></g></g></g><g fill="#ffa732" fill-opacity="1"><g transform="translate(124.904291, 100.874996)"><g><path d="M 3.300781 -34.722656 L 15.222656 -23.324219 L 3.375 -12.296875 C 0.75 -9.75 4.574219 -6.222656 7.125 -8.625 L 20.023438 -21.148438 C 21.746094 -22.574219 21.449219 -24.222656 19.949219 -25.648438 L 6.972656 -38.097656 C 4.574219 -40.722656 0.675781 -37.570312 3.300781 -34.722656 Z M 3.300781 -34.722656 "/></g></g></g></svg>